<?xml version="1.0" standalone="no"?>
<!DOCTYPE svg PUBLIC "-//W3C//DTD SVG 20010904//EN"
 "http://www.w3.org/TR/2001/REC-SVG-20010904/DTD/svg10.dtd">
<svg version="1.0" xmlns="http://www.w3.org/2000/svg"
 width="256.000000pt" height="256.000000pt" viewBox="0 0 256.000000 256.000000"
 preserveAspectRatio="xMidYMid meet">
<metadata>
Created by potrace 1.11, written by Peter Selinger 2001-2013
</metadata>
<g transform="translate(0.000000,256.000000) scale(0.100000,-0.100000)"
fill="#000000" stroke="none">
<path d="M1217 2554 c-1 -1 -31 -4 -67 -7 -186 -17 -394 -91 -560 -198 -65
-42 -68 -44 -115 -84 -138 -118 -250 -256 -324 -401 -37 -74 -88 -198 -96
-234 -2 -8 -11 -46 -20 -85 -36 -152 -38 -359 -3 -526 11 -52 10 -59 -10 -83
-11 -15 -19 -35 -17 -44 6 -32 100 -179 111 -175 15 5 95 -132 154 -262 67
-148 63 -142 101 -128 37 14 48 9 105 -44 45 -43 187 -131 263 -165 132 -58
121 -54 254 -88 100 -25 121 -27 295 -25 103 1 201 5 217 9 198 46 348 108
485 199 47 32 154 120 180 149 14 15 20 15 85 -7 109 -36 99 -49 210 284 94
285 94 286 72 295 -12 6 -23 10 -24 11 -1 0 5 30 13 65 19 81 27 164 27 265 0
82 -10 211 -17 223 -2 4 -7 23 -10 42 -14 86 -66 234 -114 325 -198 375 -572
633 -987 681 -46 6 -204 12 -208 8z"/>
</g>
</svg>
